<?xml version="1.0" encoding="UTF-8"?>
<!DOCTYPE svg PUBLIC "-//W3C//DTD SVG 1.1//EN" "http://www.w3.org/Graphics/SVG/1.1/DTD/svg11.dtd">
<svg version="1.1" xmlns="http://www.w3.org/2000/svg" xmlns:xlink="http://www.w3.org/1999/xlink" x="0" y="0" width="1140" height="330" viewBox="0, 0, 570, 165">
  <g id="Background">
    <rect x="0" y="0" width="570" height="165" fill="#FFFFFF"/>
  </g>
  <g id="Layer_1">
    <path d="M510.331,91.013 L535.831,87.413" fill-opacity="0" stroke="#000000" stroke-width="2"/>
    <path d="M498.992,39.179 L521.872,48.878" fill-opacity="0" stroke="#000000" stroke-width="2"/>
    <path d="M541.851,121.388 L526.06,106.84" fill-opacity="0" stroke="#000000" stroke-width="2"/>
    <text transform="matrix(1, 0, 0, 1, 275.021, 90)">
      <tspan x="-221.021" y="54.75" font-family="FjallaOne-Regular" font-size="145.5" fill="#000000">TACOMA</tspan>
    </text>
    <path d="M69.312,143.938 L15.312,143.938" fill-opacity="0" stroke="#515151" stroke-width="3" stroke-dasharray="6,6"/>
    <path d="M501.148,143.844 L555.881,144.075" fill-opacity="0" stroke="#515151" stroke-width="3" stroke-dasharray="6,6"/>
    <path d="M511.036,91.088 L525.359,106.787" fill-opacity="0" stroke="#000000" stroke-width="2"/>
    <path d="M525.668,107.383 L535.295,88.044" fill-opacity="0" stroke="#000000" stroke-width="2"/>
    <g>
      <path d="M521.821,109.227 C520.408,107.012 521.058,104.071 523.272,102.658 C525.487,101.244 528.428,101.894 529.841,104.109 C531.255,106.324 530.605,109.265 528.39,110.678 C526.175,112.091 523.234,111.442 521.821,109.227 z" fill="#FFFFFF"/>
      <path d="M521.821,109.227 C520.408,107.012 521.058,104.071 523.272,102.658 C525.487,101.244 528.428,101.894 529.841,104.109 C531.255,106.324 530.605,109.265 528.39,110.678 C526.175,112.091 523.234,111.442 521.821,109.227 z" fill-opacity="0" stroke="#000000" stroke-width="2"/>
    </g>
    <g>
      <path d="M506.95,92.986 C505.536,90.772 506.186,87.831 508.401,86.417 C510.616,85.004 513.557,85.654 514.97,87.869 C516.383,90.083 515.733,93.025 513.519,94.438 C511.304,95.851 508.363,95.201 506.95,92.986 z" fill="#FFFFFF"/>
      <path d="M506.95,92.986 C505.536,90.772 506.186,87.831 508.401,86.417 C510.616,85.004 513.557,85.654 514.97,87.869 C516.383,90.083 515.733,93.025 513.519,94.438 C511.304,95.851 508.363,95.201 506.95,92.986 z" fill-opacity="0" stroke="#000000" stroke-width="2"/>
    </g>
    <g>
      <path d="M531.405,89.694 C529.992,87.479 530.642,84.538 532.856,83.125 C535.071,81.711 538.012,82.361 539.425,84.576 C540.839,86.791 540.189,89.732 537.974,91.145 C535.759,92.558 532.818,91.909 531.405,89.694 z" fill="#FFFFFF"/>
      <path d="M531.405,89.694 C529.992,87.479 530.642,84.538 532.856,83.125 C535.071,81.711 538.012,82.361 539.425,84.576 C540.839,86.791 540.189,89.732 537.974,91.145 C535.759,92.558 532.818,91.909 531.405,89.694 z" fill-opacity="0" stroke="#000000" stroke-width="2"/>
    </g>
    <g>
      <path d="M517.16,49.221 C516.754,46.626 518.528,44.192 521.124,43.785 C523.72,43.379 526.153,45.153 526.56,47.749 C526.967,50.345 525.192,52.778 522.596,53.185 C520.001,53.591 517.567,51.817 517.16,49.221 z" fill="#FFFFFF"/>
      <path d="M517.16,49.221 C516.754,46.626 518.528,44.192 521.124,43.785 C523.72,43.379 526.153,45.153 526.56,47.749 C526.967,50.345 525.192,52.778 522.596,53.185 C520.001,53.591 517.567,51.817 517.16,49.221 z" fill-opacity="0" stroke="#000000" stroke-width="2"/>
    </g>
    <g>
      <path d="M540.679,125.079 C538.227,124.137 537.002,121.385 537.944,118.933 C538.886,116.48 541.638,115.256 544.091,116.198 C546.543,117.14 547.768,119.892 546.826,122.344 C545.884,124.797 543.132,126.021 540.679,125.079 z" fill="#FFFFFF"/>
      <path d="M540.679,125.079 C538.227,124.137 537.002,121.385 537.944,118.933 C538.886,116.48 541.638,115.256 544.091,116.198 C546.543,117.14 547.768,119.892 546.826,122.344 C545.884,124.797 543.132,126.021 540.679,125.079 z" fill-opacity="0" stroke="#000000" stroke-width="2"/>
    </g>
    <g>
      <path d="M503.608,39.281 C503.279,41.888 500.899,43.734 498.293,43.405 C495.686,43.076 493.84,40.696 494.169,38.089 C494.498,35.483 496.878,33.636 499.485,33.966 C502.091,34.295 503.937,36.675 503.608,39.281 z" fill="#FFFFFF"/>
      <path d="M503.608,39.281 C503.279,41.888 500.899,43.734 498.293,43.405 C495.686,43.076 493.84,40.696 494.169,38.089 C494.498,35.483 496.878,33.636 499.485,33.966 C502.091,34.295 503.937,36.675 503.608,39.281 z" fill-opacity="0" stroke="#000000" stroke-width="2"/>
    </g>
    <g>
      <path d="M27.763,47.981 L33.388,73.856" fill-opacity="0" stroke="#000000" stroke-width="2"/>
      <path d="M33.388,73.856 L51.388,55.481" fill-opacity="0" stroke="#000000" stroke-width="2"/>
      <path d="M51.388,55.481 L27.763,47.981" fill-opacity="0" stroke="#000000" stroke-width="2"/>
    </g>
    <g>
      <path d="M29.288,73.81 C28.919,71.209 30.728,68.8 33.329,68.43 C35.93,68.061 38.338,69.87 38.708,72.471 C39.078,75.072 37.269,77.48 34.668,77.85 C32.067,78.22 29.658,76.411 29.288,73.81 z" fill="#FFFFFF"/>
      <path d="M29.288,73.81 C28.919,71.209 30.728,68.8 33.329,68.43 C35.93,68.061 38.338,69.87 38.708,72.471 C39.078,75.072 37.269,77.48 34.668,77.85 C32.067,78.22 29.658,76.411 29.288,73.81 z" fill-opacity="0" stroke="#000000" stroke-width="2"/>
    </g>
    <g>
      <path d="M23.333,48.662 C22.963,46.061 24.772,43.652 27.373,43.283 C29.974,42.913 32.382,44.722 32.752,47.323 C33.122,49.924 31.313,52.332 28.712,52.702 C26.111,53.072 23.702,51.263 23.333,48.662 z" fill="#FFFFFF"/>
      <path d="M23.333,48.662 C22.963,46.061 24.772,43.652 27.373,43.283 C29.974,42.913 32.382,44.722 32.752,47.323 C33.122,49.924 31.313,52.332 28.712,52.702 C26.111,53.072 23.702,51.263 23.333,48.662 z" fill-opacity="0" stroke="#000000" stroke-width="2"/>
    </g>
    <g>
      <path d="M46.958,55.787 C46.588,53.186 48.397,50.777 50.998,50.408 C53.599,50.038 56.007,51.847 56.377,54.448 C56.747,57.049 54.938,59.457 52.337,59.827 C49.736,60.197 47.327,58.388 46.958,55.787 z" fill="#FFFFFF"/>
      <path d="M46.958,55.787 C46.588,53.186 48.397,50.777 50.998,50.408 C53.599,50.038 56.007,51.847 56.377,54.448 C56.747,57.049 54.938,59.457 52.337,59.827 C49.736,60.197 47.327,58.388 46.958,55.787 z" fill-opacity="0" stroke="#000000" stroke-width="2"/>
    </g>
    <g>
      <path d="M21.977,125.231 C20.134,123.358 20.158,120.346 22.031,118.504 C23.904,116.661 26.915,116.685 28.758,118.558 C30.601,120.431 30.576,123.443 28.704,125.285 C26.831,127.128 23.819,127.104 21.977,125.231 z" fill="#FFFFFF"/>
      <path d="M21.977,125.231 C20.134,123.358 20.158,120.346 22.031,118.504 C23.904,116.661 26.915,116.685 28.758,118.558 C30.601,120.431 30.576,123.443 28.704,125.285 C26.831,127.128 23.819,127.104 21.977,125.231 z" fill-opacity="0" stroke="#000000" stroke-width="2"/>
    </g>
    <g>
      <path d="M53.701,113.839 L35.701,98.089" fill-opacity="0" stroke="#000000" stroke-width="2"/>
      <g>
        <path d="M30.939,98.637 C30.569,96.036 32.378,93.627 34.979,93.258 C37.58,92.888 39.988,94.697 40.358,97.298 C40.728,99.899 38.919,102.307 36.318,102.677 C33.717,103.047 31.308,101.238 30.939,98.637 z" fill="#FFFFFF"/>
        <path d="M30.939,98.637 C30.569,96.036 32.378,93.627 34.979,93.258 C37.58,92.888 39.988,94.697 40.358,97.298 C40.728,99.899 38.919,102.307 36.318,102.677 C33.717,103.047 31.308,101.238 30.939,98.637 z" fill-opacity="0" stroke="#000000" stroke-width="2"/>
      </g>
      <g>
        <path d="M47.483,113.012 C47.113,110.411 48.922,108.002 51.523,107.633 C54.124,107.263 56.532,109.072 56.902,111.673 C57.272,114.274 55.463,116.682 52.862,117.052 C50.261,117.422 47.852,115.613 47.483,113.012 z" fill="#FFFFFF"/>
        <path d="M47.483,113.012 C47.113,110.411 48.922,108.002 51.523,107.633 C54.124,107.263 56.532,109.072 56.902,111.673 C57.272,114.274 55.463,116.682 52.862,117.052 C50.261,117.422 47.852,115.613 47.483,113.012 z" fill-opacity="0" stroke="#000000" stroke-width="2"/>
      </g>
    </g>
    <g>
      <path d="M497.6,71.677 C495.731,69.831 495.712,66.819 497.559,64.95 C499.405,63.081 502.417,63.062 504.286,64.909 C506.155,66.755 506.173,69.767 504.327,71.636 C502.481,73.505 499.469,73.523 497.6,71.677 z" fill="#FFFFFF"/>
      <path d="M497.6,71.677 C495.731,69.831 495.712,66.819 497.559,64.95 C499.405,63.081 502.417,63.062 504.286,64.909 C506.155,66.755 506.173,69.767 504.327,71.636 C502.481,73.505 499.469,73.523 497.6,71.677 z" fill-opacity="0" stroke="#000000" stroke-width="2"/>
    </g>
  </g>
</svg>
